<svg xmlns="http://www.w3.org/2000/svg" width="860" height="144" fill="none" viewBox="0 0 860 144">
  <rect width="584" height="32" x="1" y="112" fill="#BB3323" rx="16"/>
  <rect width="511" height="35" y="64" fill="#027E3D" rx="17.5"/>
  <rect width="381" height="35" x="1" y="16" fill="#F8C63A" rx="17.5"/>
  <rect width="91" height="34" x="746" y="17" fill="#BB3323" rx="17"/>
  <circle cx="607" cy="128" r="16" fill="#027E3D"/>
  <circle cx="811" cy="128" r="16" fill="#027E3D"/>
  <circle cx="777" cy="128" r="16" fill="#BB3323"/>
  <circle cx="743" cy="128" r="16" fill="#F8C63A"/>
  <circle cx="709" cy="128" r="16" fill="#027E3D"/>
  <circle cx="675" cy="128" r="16" fill="#BB3323"/>
  <circle cx="641" cy="128" r="16" fill="#F8C63A"/>
  <path fill="#000" d="M414.169 31.538c-4.177-1.201-7.221-2.672-9.132-4.414-1.894-1.759-2.841-3.923-2.841-6.494 0-2.908 1.158-5.31 3.475-7.204 2.334-1.91 5.361-2.866 9.081-2.866 2.537 0 4.794.49 6.773 1.471 1.995.981 3.534 2.334 4.617 4.059a10.32 10.32 0 011.648 5.656h-4.895c0-2.232-.711-3.982-2.131-5.25-1.421-1.286-3.424-1.928-6.012-1.928-2.401 0-4.278.532-5.631 1.598-1.336 1.048-2.004 2.511-2.004 4.388 0 1.505.634 2.782 1.903 3.83 1.285 1.032 3.458 1.979 6.519 2.841 3.077.863 5.479 1.818 7.203 2.867 1.742 1.031 3.027 2.24 3.856 3.627.846 1.387 1.268 3.018 1.268 4.896 0 2.993-1.166 5.394-3.5 7.203-2.334 1.793-5.454 2.69-9.36 2.69-2.537 0-4.904-.483-7.103-1.447-2.198-.98-3.897-2.316-5.098-4.007-1.184-1.691-1.776-3.61-1.776-5.758h4.896c0 2.232.82 3.999 2.46 5.301 1.658 1.285 3.864 1.928 6.621 1.928 2.57 0 4.54-.524 5.91-1.573 1.37-1.048 2.055-2.477 2.055-4.287s-.634-3.204-1.903-4.185c-1.268-.998-3.568-1.979-6.899-2.942zm36.172 13.748c-1.827 2.148-4.507 3.221-8.041 3.221-2.926 0-5.158-.845-6.697-2.536-1.522-1.708-2.291-4.228-2.308-7.56V20.555h4.692v17.73c0 4.16 1.691 6.24 5.074 6.24 3.585 0 5.969-1.335 7.153-4.007V20.554h4.692V48h-4.464l-.101-2.714zm34.903-10.705c0 4.177-.955 7.543-2.866 10.096-1.911 2.554-4.498 3.83-7.762 3.83-3.332 0-5.953-1.057-7.864-3.17v13.215h-4.692V20.554h4.286l.229 3.044c1.911-2.367 4.566-3.551 7.965-3.551 3.297 0 5.901 1.243 7.812 3.729 1.928 2.485 2.892 5.944 2.892 10.374v.431zm-4.693-.532c0-3.095-.659-5.538-1.978-7.331-1.319-1.793-3.129-2.689-5.428-2.689-2.841 0-4.972 1.26-6.393 3.78v13.114c1.404 2.503 3.552 3.754 6.443 3.754 2.249 0 4.033-.888 5.352-2.663 1.336-1.793 2.004-4.448 2.004-7.965zm22.069 14.458c-3.721 0-6.748-1.217-9.081-3.652-2.334-2.452-3.501-5.725-3.501-9.817v-.862c0-2.723.516-5.15 1.548-7.28 1.048-2.148 2.502-3.822 4.362-5.023 1.878-1.217 3.907-1.826 6.088-1.826 3.568 0 6.342 1.175 8.32 3.526 1.979 2.35 2.968 5.715 2.968 10.095v1.953h-18.593c.068 2.706.854 4.896 2.359 6.57 1.522 1.657 3.45 2.486 5.783 2.486 1.658 0 3.061-.338 4.211-1.015a10.588 10.588 0 003.019-2.688l2.866 2.232c-2.3 3.534-5.75 5.301-10.349 5.301zm-.584-24.605c-1.894 0-3.483.694-4.768 2.08-1.286 1.37-2.08 3.298-2.385 5.784h13.748v-.355c-.135-2.385-.777-4.228-1.927-5.53-1.15-1.32-2.706-1.979-4.668-1.979zm30.008.863a14.07 14.07 0 00-2.308-.178c-3.078 0-5.166 1.31-6.266 3.932V48h-4.692V20.554h4.566l.076 3.17c1.539-2.451 3.72-3.677 6.544-3.677.913 0 1.607.118 2.08.355v4.363zm8.751-4.21l.127 3.043c2.013-2.367 4.727-3.551 8.143-3.551 3.838 0 6.451 1.471 7.838 4.413.913-1.319 2.097-2.384 3.551-3.196 1.471-.811 3.205-1.217 5.2-1.217 6.02 0 9.081 3.187 9.182 9.563V48h-4.692V29.889c0-1.962-.448-3.425-1.345-4.389-.896-.98-2.401-1.47-4.515-1.47-1.742 0-3.187.523-4.337 1.572-1.15 1.032-1.818 2.427-2.004 4.185V48h-4.718V30.016c0-3.991-1.953-5.987-5.86-5.987-3.078 0-5.183 1.31-6.316 3.932V48h-4.693V20.554h4.439zm52.533 27.952c-3.72 0-6.747-1.217-9.081-3.652-2.333-2.452-3.5-5.725-3.5-9.817v-.862c0-2.723.515-5.15 1.547-7.28 1.048-2.148 2.503-3.822 4.363-5.023 1.877-1.217 3.906-1.826 6.088-1.826 3.568 0 6.341 1.175 8.32 3.526 1.978 2.35 2.968 5.715 2.968 10.095v1.953h-18.594c.068 2.706.854 4.896 2.359 6.57 1.522 1.657 3.45 2.486 5.784 2.486 1.657 0 3.061-.338 4.211-1.015a10.57 10.57 0 003.018-2.688l2.866 2.232c-2.299 3.534-5.749 5.301-10.349 5.301zm-.583-24.605c-1.894 0-3.484.694-4.769 2.08-1.285 1.37-2.08 3.298-2.384 5.784h13.748v-.355c-.135-2.385-.778-4.228-1.928-5.53-1.15-1.32-2.706-1.979-4.667-1.979zm30.008.863a14.083 14.083 0 00-2.309-.178c-3.077 0-5.166 1.31-6.265 3.932V48h-4.693V20.554h4.566l.076 3.17c1.539-2.451 3.721-3.677 6.545-3.677.913 0 1.606.118 2.08.355v4.363zm14.839 19.912c1.674 0 3.137-.507 4.388-1.522 1.251-1.014 1.945-2.283 2.08-3.805h4.439c-.085 1.573-.626 3.07-1.623 4.49-.998 1.42-2.334 2.553-4.008 3.399a11.45 11.45 0 01-5.276 1.268c-3.738 0-6.714-1.243-8.929-3.728-2.198-2.503-3.298-5.92-3.298-10.248v-.787c0-2.671.491-5.047 1.472-7.128.98-2.08 2.384-3.694 4.21-4.844 1.844-1.15 4.017-1.725 6.519-1.725 3.078 0 5.632.921 7.661 2.765 2.046 1.843 3.137 4.236 3.272 7.178h-4.439c-.135-1.775-.812-3.23-2.029-4.363-1.201-1.15-2.689-1.725-4.465-1.725-2.384 0-4.236.863-5.555 2.588-1.302 1.708-1.953 4.185-1.953 7.432v.888c0 3.162.651 5.597 1.953 7.305 1.302 1.708 3.162 2.562 5.581 2.562zM670.72 48c-.271-.541-.491-1.505-.66-2.892-2.181 2.266-4.786 3.4-7.813 3.4-2.705 0-4.929-.762-6.671-2.284-1.725-1.538-2.587-3.483-2.587-5.834 0-2.858 1.082-5.073 3.247-6.646 2.181-1.59 5.242-2.384 9.182-2.384h4.566v-2.156c0-1.64-.49-2.943-1.471-3.907-.981-.98-2.427-1.47-4.338-1.47-1.674 0-3.078.422-4.211 1.268-1.133.845-1.699 1.868-1.699 3.069h-4.718c0-1.37.482-2.689 1.446-3.957.981-1.285 2.3-2.3 3.957-3.044 1.674-.744 3.509-1.116 5.504-1.116 3.162 0 5.64.795 7.432 2.384 1.793 1.573 2.723 3.746 2.791 6.52v12.631c0 2.52.321 4.524.964 6.012V48h-4.921zm-7.788-3.577c1.471 0 2.867-.38 4.186-1.141s2.274-1.75 2.866-2.968v-5.631h-3.678c-5.75 0-8.625 1.682-8.625 5.048 0 1.47.491 2.62 1.472 3.45.981.828 2.24 1.242 3.779 1.242zm17.959-10.374c0-4.211.998-7.593 2.993-10.147 1.996-2.57 4.609-3.855 7.839-3.855 3.213 0 5.758 1.099 7.635 3.297V9.038h4.692V48h-4.312l-.228-2.942c-1.877 2.3-4.49 3.45-7.838 3.45-3.179 0-5.775-1.303-7.788-3.907-1.995-2.604-2.993-6.003-2.993-10.197v-.355zm4.693.532c0 3.112.643 5.547 1.928 7.306 1.285 1.758 3.061 2.638 5.327 2.638 2.976 0 5.149-1.336 6.519-4.008V27.91c-1.404-2.587-3.56-3.88-6.469-3.88-2.299 0-4.092.887-5.377 2.663-1.285 1.775-1.928 4.405-1.928 7.888zm24.529-.558c0-2.688.524-5.107 1.572-7.254 1.066-2.148 2.537-3.805 4.414-4.972 1.894-1.167 4.05-1.75 6.468-1.75 3.738 0 6.756 1.293 9.056 3.88 2.317 2.588 3.475 6.03 3.475 10.325v.33c0 2.671-.516 5.073-1.547 7.203-1.015 2.114-2.478 3.763-4.388 4.947-1.894 1.183-4.076 1.775-6.545 1.775-3.72 0-6.739-1.293-9.055-3.88-2.3-2.588-3.45-6.012-3.45-10.274v-.33zm4.718.558c0 3.044.702 5.488 2.105 7.331 1.421 1.843 3.315 2.765 5.682 2.765 2.385 0 4.279-.93 5.682-2.79 1.404-1.877 2.106-4.498 2.106-7.864 0-3.01-.719-5.445-2.157-7.305-1.42-1.877-3.314-2.816-5.682-2.816-2.316 0-4.185.922-5.605 2.765-1.421 1.843-2.131 4.482-2.131 7.914zM529.287 99V62.067h10.425c3.213 0 6.054.71 8.523 2.131 2.469 1.42 4.372 3.441 5.707 6.062 1.353 2.622 2.038 5.632 2.055 9.03v2.36c0 3.483-.676 6.536-2.029 9.157-1.336 2.621-3.255 4.633-5.758 6.037-2.486 1.404-5.386 2.122-8.701 2.156h-10.222zm4.87-32.925v28.943h5.124c3.754 0 6.671-1.167 8.751-3.5 2.097-2.335 3.146-5.657 3.146-9.97v-2.156c0-4.194-.99-7.449-2.968-9.766-1.962-2.333-4.752-3.517-8.371-3.55h-5.682zM561.4 85.023c0-2.688.524-5.107 1.573-7.254 1.065-2.148 2.536-3.805 4.413-4.972 1.894-1.167 4.051-1.75 6.469-1.75 3.737 0 6.756 1.293 9.055 3.88 2.317 2.588 3.475 6.03 3.475 10.325v.33c0 2.671-.515 5.073-1.547 7.203-1.014 2.114-2.477 3.763-4.388 4.947-1.894 1.183-4.076 1.775-6.545 1.775-3.72 0-6.738-1.293-9.055-3.88-2.3-2.588-3.45-6.012-3.45-10.274v-.33zm4.718.558c0 3.044.702 5.488 2.105 7.331 1.421 1.843 3.315 2.765 5.682 2.765 2.385 0 4.279-.93 5.682-2.79 1.404-1.877 2.106-4.498 2.106-7.864 0-3.01-.719-5.445-2.156-7.305-1.421-1.877-3.315-2.816-5.682-2.816-2.317 0-4.186.922-5.606 2.765-1.421 1.843-2.131 4.482-2.131 7.914zm42.133 6.139c0-1.268-.482-2.25-1.446-2.942-.947-.71-2.613-1.32-4.997-1.827-2.368-.507-4.253-1.116-5.657-1.826-1.386-.71-2.418-1.556-3.094-2.537-.66-.98-.99-2.147-.99-3.5 0-2.25.947-4.152 2.841-5.708 1.911-1.555 4.346-2.333 7.306-2.333 3.111 0 5.631.803 7.559 2.41 1.945 1.606 2.917 3.66 2.917 6.163h-4.718c0-1.285-.55-2.392-1.649-3.323-1.082-.93-2.452-1.395-4.109-1.395-1.708 0-3.044.372-4.008 1.117-.964.744-1.446 1.716-1.446 2.917 0 1.133.448 1.987 1.345 2.561.896.576 2.511 1.125 4.844 1.65 2.351.523 4.253 1.15 5.708 1.876 1.454.728 2.528 1.607 3.221 2.638.71 1.015 1.066 2.258 1.066 3.73 0 2.451-.981 4.421-2.943 5.91-1.961 1.47-4.507 2.206-7.635 2.206-2.198 0-4.143-.389-5.834-1.166-1.691-.778-3.019-1.86-3.983-3.247-.947-1.404-1.42-2.917-1.42-4.54h4.693c.084 1.572.71 2.823 1.877 3.753 1.183.913 2.739 1.37 4.667 1.37 1.776 0 3.196-.355 4.261-1.065 1.083-.727 1.624-1.691 1.624-2.892zm51.594-4.439c-.456 3.906-1.902 6.925-4.337 9.056-2.419 2.113-5.64 3.17-9.665 3.17-4.363 0-7.863-1.564-10.501-4.692-2.621-3.129-3.932-7.314-3.932-12.556v-3.552c0-3.433.609-6.451 1.826-9.055 1.235-2.605 2.977-4.6 5.226-5.987 2.249-1.403 4.853-2.105 7.812-2.105 3.924 0 7.069 1.1 9.437 3.297 2.367 2.182 3.745 5.209 4.134 9.082h-4.895c-.423-2.943-1.345-5.074-2.765-6.393-1.404-1.319-3.374-1.978-5.911-1.978-3.111 0-5.555 1.15-7.33 3.45-1.759 2.3-2.638 5.572-2.638 9.816v3.577c0 4.007.837 7.195 2.511 9.563 1.674 2.367 4.016 3.55 7.026 3.55 2.706 0 4.777-.608 6.215-1.826 1.454-1.234 2.418-3.373 2.892-6.417h4.895zM682.725 99c-.27-.541-.49-1.505-.659-2.892-2.182 2.266-4.786 3.4-7.813 3.4-2.706 0-4.929-.762-6.671-2.284-1.725-1.538-2.588-3.483-2.588-5.834 0-2.858 1.083-5.073 3.247-6.646 2.182-1.59 5.243-2.384 9.183-2.384h4.566v-2.156c0-1.64-.491-2.943-1.472-3.906-.98-.981-2.426-1.472-4.337-1.472-1.674 0-3.078.423-4.211 1.269-1.133.845-1.699 1.868-1.699 3.069h-4.719c0-1.37.482-2.689 1.446-3.957.981-1.285 2.3-2.3 3.957-3.044 1.675-.744 3.509-1.116 5.505-1.116 3.162 0 5.639.795 7.432 2.384 1.793 1.573 2.723 3.746 2.79 6.52v12.631c0 2.52.322 4.524.964 6.012V99h-4.921zm-7.787-3.577c1.471 0 2.866-.38 4.185-1.141 1.319-.761 2.275-1.75 2.867-2.968v-5.631h-3.678c-5.75 0-8.625 1.682-8.625 5.048 0 1.47.491 2.62 1.471 3.45.981.828 2.241 1.242 3.78 1.242zm23.514-23.869l.127 3.044c2.012-2.367 4.726-3.551 8.142-3.551 3.839 0 6.452 1.471 7.838 4.413.914-1.319 2.097-2.384 3.552-3.196 1.471-.811 3.204-1.217 5.2-1.217 6.02 0 9.081 3.187 9.182 9.563V99H727.8V80.889c0-1.962-.448-3.425-1.344-4.389-.896-.98-2.401-1.47-4.515-1.47-1.742 0-3.188.523-4.338 1.572-1.15 1.031-1.818 2.427-2.004 4.185V99h-4.718V81.016c0-3.991-1.953-5.987-5.859-5.987-3.078 0-5.183 1.31-6.316 3.932V99h-4.693V71.554h4.439zM744.694 99h-4.693V71.554h4.693V99zm-5.073-34.726c0-.76.228-1.404.685-1.928.473-.524 1.167-.786 2.08-.786s1.606.262 2.08.786c.473.525.71 1.167.71 1.928 0 .761-.237 1.395-.71 1.903-.474.507-1.167.76-2.08.76s-1.607-.253-2.08-.76c-.457-.508-.685-1.142-.685-1.903zm17.046 7.28l.152 3.45c2.097-2.638 4.836-3.957 8.219-3.957 5.8 0 8.725 3.272 8.776 9.816V99h-4.693V80.838c-.016-1.978-.473-3.441-1.369-4.388-.88-.947-2.258-1.42-4.135-1.42-1.522 0-2.858.405-4.008 1.217-1.15.811-2.046 1.877-2.689 3.196V99h-4.692V71.554h4.439zm22.981 13.47c0-2.69.525-5.108 1.573-7.255 1.065-2.148 2.537-3.805 4.414-4.972 1.894-1.167 4.05-1.75 6.468-1.75 3.737 0 6.756 1.293 9.056 3.88 2.316 2.588 3.475 6.03 3.475 10.325v.33c0 2.671-.516 5.073-1.548 7.203-1.014 2.114-2.477 3.763-4.388 4.947-1.894 1.183-4.075 1.775-6.544 1.775-3.721 0-6.739-1.293-9.056-3.88-2.3-2.588-3.45-6.012-3.45-10.274v-.33zm4.718.557c0 3.044.702 5.488 2.106 7.331 1.42 1.843 3.314 2.765 5.682 2.765 2.384 0 4.278-.93 5.682-2.79 1.403-1.877 2.105-4.498 2.105-7.864 0-3.01-.719-5.445-2.156-7.305-1.421-1.877-3.315-2.816-5.682-2.816-2.317 0-4.185.922-5.606 2.765-1.42 1.843-2.131 4.482-2.131 7.914zm42.133 6.139c0-1.268-.482-2.25-1.446-2.942-.947-.71-2.612-1.32-4.997-1.827-2.367-.507-4.253-1.116-5.656-1.826-1.387-.71-2.419-1.556-3.095-2.537-.66-.98-.989-2.147-.989-3.5 0-2.25.947-4.152 2.841-5.708 1.911-1.555 4.346-2.333 7.305-2.333 3.112 0 5.631.803 7.559 2.41 1.945 1.606 2.917 3.66 2.917 6.163h-4.718c0-1.285-.549-2.392-1.649-3.323-1.082-.93-2.452-1.395-4.109-1.395-1.708 0-3.044.372-4.008 1.117-.964.744-1.446 1.716-1.446 2.917 0 1.133.448 1.987 1.345 2.561.896.576 2.511 1.125 4.845 1.65 2.35.523 4.253 1.15 5.707 1.876 1.454.728 2.528 1.607 3.221 2.638.711 1.015 1.066 2.258 1.066 3.73 0 2.451-.981 4.421-2.943 5.91-1.961 1.47-4.506 2.206-7.635 2.206-2.198 0-4.143-.389-5.834-1.166-1.691-.778-3.018-1.86-3.982-3.247-.947-1.404-1.421-2.917-1.421-4.54h4.693c.084 1.572.71 2.823 1.877 3.753 1.184.913 2.739 1.37 4.667 1.37 1.776 0 3.196-.355 4.262-1.065 1.082-.727 1.623-1.691 1.623-2.892z"/>
</svg>
